<?xml version="1.0" encoding="UTF-8" standalone="no"?> <svg width="24" height="24" viewBox="0 0 24 24" fill="none" xmlns="http://www.w3.org/2000/svg">
<g clip-path="url(#clip0)">
<path fill-rule="evenodd" clip-rule="evenodd" d="M11.2929 0.292893C11.6834 -0.0976311 12.3166 -0.0976311 12.7071 0.292893L15.7071 3.29289C16.0976 3.68342 16.0976 4.31658 15.7071 4.70711C15.3166 5.09763 14.6834 5.09763 14.2929 4.70711L13 3.41421V15C13 15.5523 12.5523 16 12 16C11.4477 16 11 15.5523 11 15V3.41421L9.70711 4.70711C9.31658 5.09763 8.68342 5.09763 8.29289 4.70711C7.90237 4.31658 7.90237 3.68342 8.29289 3.29289L11.2929 0.292893ZM6 9C5.44772 9 5 9.44772 5 10V21C5 21.5523 5.44772 22 6 22H18C18.5523 22 19 21.5523 19 21V10C19 9.44772 18.5523 9 18 9H16C15.4477 9 15 8.55228 15 8C15 7.44772 15.4477 7 16 7H18C19.6569 7 21 8.34315 21 10V21C21 22.6569 19.6569 24 18 24H6C4.34315 24 3 22.6569 3 21V10C3 8.34315 4.34315 7 6 7H8C8.55228 7 9 7.44772 9 8C9 8.55228 8.55228 9 8 9H6Z" fill="#293644"/>
</g>
<defs>
<clipPath id="clip0">
<rect width="24" height="24" fill="white"/>
</clipPath>
</defs>
</svg>
